M48
; DRILL file {KiCad (5.1.9)-1} date 02/15/21 00:05:29
; FORMAT={-:-/ absolute / inch / decimal}
; #@! TF.CreationDate,2021-02-15T00:05:29-06:00
; #@! TF.GenerationSoftware,Kicad,Pcbnew,(5.1.9)-1
FMAT,2
INCH
T1C0.0157
T2C0.0236
T3C0.0281
T4C0.0295
T5C0.0315
T6C0.0354
T7C0.0394
T8C0.0400
T9C0.0472
T10C0.0984
T11C0.0984
T12C0.1280
%
G90
G05
T1
X4.82Y-3.94
X4.97Y-4.04
X5.07Y-3.69
X5.245Y-2.605
X5.27Y-3.34
X5.475Y-2.93
X5.77Y-4.24
X6.17Y-3.78
X6.23Y-2.65
X6.52Y-3.94
X6.67Y-2.6
X6.67Y-2.99
X6.67Y-3.24
X6.87Y-2.94
X6.91Y-2.51
X6.92Y-3.54
X7.17Y-3.24
X7.305Y-3.385
X7.63Y-2.79
X7.66Y-3.32
T2
X4.2109Y-3.99
X4.27Y-3.99
T3
X7.445Y-2.565
X7.545Y-2.465
X7.645Y-2.565
T4
X7.445Y-3.44
X7.495Y-3.44
X7.545Y-3.44
T5
X5.6029Y-3.0898
X5.6029Y-3.1898
X5.6029Y-3.2898
X5.6029Y-3.3898
X5.6029Y-3.4898
X5.6029Y-3.5898
X5.87Y-3.04
X6.17Y-3.04
X6.24Y-2.51
X6.54Y-2.51
X7.42Y-2.94
X7.42Y-3.24
X7.57Y-2.94
X7.57Y-3.24
T6
X4.52Y-4.39
X4.52Y-4.49
X4.52Y-4.59
X4.62Y-4.34
X4.62Y-4.44
X4.62Y-4.54
X7.445Y-3.815
X7.545Y-3.815
T7
X4.52Y-3.99
X4.62Y-3.99
X5.0928Y-4.14
X5.0928Y-4.3959
X5.27Y-4.14
X5.27Y-4.3959
X5.4928Y-4.14
X5.4928Y-4.3959
X5.67Y-4.14
X5.67Y-4.3959
X5.87Y-3.99
X5.87Y-4.1672
X5.87Y-4.34
X5.87Y-4.5172
X6.1259Y-3.99
X6.1259Y-4.1672
X6.1259Y-4.34
X6.1259Y-4.5172
X6.3178Y-4.14
X6.3178Y-4.3959
X6.495Y-4.14
X6.495Y-4.3959
X6.7178Y-4.14
X6.7178Y-4.3959
X6.895Y-4.14
X6.895Y-4.3959
X7.395Y-4.1401
X7.395Y-4.396
X7.5722Y-4.1401
X7.5722Y-4.396
T8
X4.81Y-2.79
X4.91Y-2.79
X5.01Y-2.79
X5.11Y-2.79
X5.17Y-4.69
X5.21Y-2.79
X5.27Y-4.69
X5.31Y-2.79
X5.37Y-4.69
X5.41Y-2.79
X5.47Y-4.69
X5.51Y-2.79
X5.57Y-4.69
X5.61Y-2.79
X5.67Y-4.69
X5.71Y-2.79
X5.77Y-4.69
X5.87Y-2.79
X5.87Y-4.69
X5.97Y-2.79
X6.07Y-2.79
X6.07Y-4.69
X6.17Y-2.79
X6.17Y-4.69
X6.27Y-2.79
X6.27Y-4.69
X6.37Y-2.79
X6.37Y-4.69
X6.47Y-2.79
X6.47Y-4.69
X6.57Y-2.79
X6.57Y-4.69
X6.67Y-4.69
X6.77Y-2.79
X6.77Y-4.69
X6.87Y-2.79
X6.97Y-2.79
X6.97Y-4.69
X7.07Y-2.79
X7.07Y-4.69
X7.17Y-2.79
X7.17Y-4.69
X7.27Y-2.79
X7.27Y-4.69
X7.37Y-2.79
X7.37Y-4.69
X7.47Y-2.79
X7.47Y-4.69
X7.57Y-4.69
X7.67Y-4.69
X7.77Y-2.79
X7.77Y-2.89
X7.77Y-2.99
X7.77Y-3.09
X7.77Y-3.19
X7.77Y-3.29
X7.77Y-3.39
X7.77Y-3.49
X7.77Y-3.59
X7.77Y-3.69
X7.77Y-3.79
X7.77Y-3.89
X7.77Y-3.99
X7.77Y-4.09
X7.77Y-4.19
X7.77Y-4.29
X7.77Y-4.39
X7.77Y-4.49
X7.87Y-2.79
X7.87Y-2.89
X7.87Y-2.99
X7.87Y-3.09
X7.87Y-3.19
X7.87Y-3.29
X7.87Y-3.39
X7.87Y-3.49
X7.87Y-3.59
X7.87Y-3.69
X7.87Y-3.79
X7.87Y-3.89
X7.87Y-3.99
X7.87Y-4.09
X7.87Y-4.19
X7.87Y-4.29
X7.87Y-4.39
X7.87Y-4.49
T9
X4.395Y-2.5
X4.495Y-2.5
X4.595Y-2.5
X4.695Y-2.5
X4.795Y-2.5
X4.895Y-2.5
X4.995Y-2.5
X5.095Y-2.5
X5.195Y-2.5
X5.295Y-2.5
X5.395Y-2.5
X5.495Y-2.5
X5.595Y-2.5
X5.695Y-2.5
X5.795Y-2.5
X5.895Y-2.5
T10
X4.1785Y-2.5
X7.1312Y-3.7205
X7.1312Y-2.5
T11
X4.156Y-2.9461
X4.156Y-3.7335
X5.6422Y-2.9461
X5.6422Y-3.7335
T12
X4.27Y-4.2648
X4.27Y-4.6648
T0
M30
