%TF.GenerationSoftware,KiCad,Pcbnew,(5.1.9)-1*%
%TF.CreationDate,2021-02-15T00:05:21-06:00*%
%TF.ProjectId,coleco-adam-ade-pro-shield,636f6c65-636f-42d6-9164-616d2d616465,rev?*%
%TF.SameCoordinates,Original*%
%TF.FileFunction,Soldermask,Bot*%
%TF.FilePolarity,Negative*%
%FSLAX46Y46*%
G04 Gerber Fmt 4.6, Leading zero omitted, Abs format (unit mm)*
G04 Created by KiCad (PCBNEW (5.1.9)-1) date 2021-02-15 00:05:21*
%MOMM*%
%LPD*%
G01*
G04 APERTURE LIST*
%ADD10C,3.000000*%
%ADD11O,1.800000X2.600000*%
%ADD12R,1.800000X2.600000*%
%ADD13R,1.222000X1.222000*%
%ADD14C,1.222000*%
%ADD15C,1.700000*%
%ADD16O,1.700000X1.700000*%
%ADD17R,1.700000X1.700000*%
%ADD18C,1.200000*%
%ADD19R,1.200000X1.200000*%
%ADD20C,2.500000*%
%ADD21O,2.000000X1.200000*%
%ADD22O,1.600000X1.600000*%
%ADD23C,1.600000*%
%ADD24R,1.050000X1.500000*%
%ADD25O,1.050000X1.500000*%
%ADD26C,1.800000*%
%ADD27R,1.800000X1.800000*%
%ADD28R,1.520000X1.520000*%
%ADD29C,3.250000*%
%ADD30C,1.520000*%
%ADD31C,1.727200*%
%ADD32O,1.727200X1.727200*%
%ADD33O,1.727200X2.032000*%
G04 APERTURE END LIST*
D10*
%TO.C,DS1*%
X181133000Y-63500000D03*
X181132480Y-94500700D03*
X106133900Y-63500000D03*
D11*
X149733000Y-63500000D03*
X147193000Y-63500000D03*
X144653000Y-63500000D03*
X142113000Y-63500000D03*
X139573000Y-63500000D03*
X137033000Y-63500000D03*
X134493000Y-63500000D03*
X131953000Y-63500000D03*
X129413000Y-63500000D03*
X126873000Y-63500000D03*
X124333000Y-63500000D03*
X121793000Y-63500000D03*
X119253000Y-63500000D03*
X116713000Y-63500000D03*
X114173000Y-63500000D03*
D12*
X111633000Y-63500000D03*
%TD*%
D13*
%TO.C,RV1*%
X189103000Y-65151000D03*
D14*
X191643000Y-62611000D03*
X194183000Y-65151000D03*
%TD*%
D15*
%TO.C,SW2*%
X144018000Y-105156000D03*
X144018000Y-111656000D03*
X139518000Y-105156000D03*
X139518000Y-111656000D03*
%TD*%
D16*
%TO.C,JP1*%
X117348000Y-101346000D03*
D17*
X114808000Y-101346000D03*
%TD*%
D18*
%TO.C,C1*%
X106958000Y-101346000D03*
D19*
X108458000Y-101346000D03*
%TD*%
D20*
%TO.C,MOD1*%
X143313000Y-74832000D03*
X105563000Y-74832000D03*
X105563000Y-94832000D03*
X143313000Y-94832000D03*
D21*
X142313000Y-78482000D03*
X142313000Y-81022000D03*
X142313000Y-83562000D03*
X142313000Y-86102000D03*
X142313000Y-88642000D03*
X142313000Y-91182000D03*
%TD*%
D22*
%TO.C,R4*%
X158496000Y-63754000D03*
D23*
X166116000Y-63754000D03*
%TD*%
D22*
%TO.C,R3*%
X149098000Y-77216000D03*
D23*
X156718000Y-77216000D03*
%TD*%
D22*
%TO.C,R2*%
X188468000Y-82296000D03*
D23*
X188468000Y-74676000D03*
%TD*%
D22*
%TO.C,R1*%
X192278000Y-82296000D03*
D23*
X192278000Y-74676000D03*
%TD*%
D24*
%TO.C,Q1*%
X191643000Y-87376000D03*
D25*
X189103000Y-87376000D03*
X190373000Y-87376000D03*
%TD*%
D26*
%TO.C,D1*%
X189103000Y-96901000D03*
D27*
X191643000Y-96901000D03*
%TD*%
D15*
%TO.C,SW7*%
X187833000Y-111658400D03*
X187833000Y-105158400D03*
X192333000Y-111658400D03*
X192333000Y-105158400D03*
%TD*%
%TO.C,SW6*%
X133858000Y-105156000D03*
X133858000Y-111656000D03*
X129358000Y-105156000D03*
X129358000Y-111656000D03*
%TD*%
%TO.C,SW5*%
X149098000Y-101346000D03*
X155598000Y-101346000D03*
X149098000Y-105846000D03*
X155598000Y-105846000D03*
%TD*%
%TO.C,SW4*%
X149098000Y-110236000D03*
X155598000Y-110236000D03*
X149098000Y-114736000D03*
X155598000Y-114736000D03*
%TD*%
%TO.C,SW3*%
X164973000Y-105156000D03*
X164973000Y-111656000D03*
X160473000Y-105156000D03*
X160473000Y-111656000D03*
%TD*%
%TO.C,SW1*%
X175133000Y-105156000D03*
X175133000Y-111656000D03*
X170633000Y-105156000D03*
X170633000Y-111656000D03*
%TD*%
D28*
%TO.C,J1*%
X117348000Y-110236000D03*
D29*
X108458000Y-108326000D03*
D30*
X114808000Y-111506000D03*
X117348000Y-112776000D03*
X114808000Y-114046000D03*
X117348000Y-115316000D03*
X114808000Y-116586000D03*
D29*
X108458000Y-118486000D03*
%TD*%
D31*
%TO.C,P1*%
X197358000Y-114046000D03*
D32*
X199898000Y-114046000D03*
X197358000Y-111506000D03*
X199898000Y-111506000D03*
X197358000Y-108966000D03*
X199898000Y-108966000D03*
X197358000Y-106426000D03*
X199898000Y-106426000D03*
X197358000Y-103886000D03*
X199898000Y-103886000D03*
X197358000Y-101346000D03*
X199898000Y-101346000D03*
X197358000Y-98806000D03*
X199898000Y-98806000D03*
X197358000Y-96266000D03*
X199898000Y-96266000D03*
X197358000Y-93726000D03*
X199898000Y-93726000D03*
X197358000Y-91186000D03*
X199898000Y-91186000D03*
X197358000Y-88646000D03*
X199898000Y-88646000D03*
X197358000Y-86106000D03*
X199898000Y-86106000D03*
X197358000Y-83566000D03*
X199898000Y-83566000D03*
X197358000Y-81026000D03*
X199898000Y-81026000D03*
X197358000Y-78486000D03*
X199898000Y-78486000D03*
X197358000Y-75946000D03*
X199898000Y-75946000D03*
X197358000Y-73406000D03*
X199898000Y-73406000D03*
X197358000Y-70866000D03*
X199898000Y-70866000D03*
%TD*%
D33*
%TO.C,P2*%
X131318000Y-119126000D03*
X133858000Y-119126000D03*
X136398000Y-119126000D03*
X138938000Y-119126000D03*
X141478000Y-119126000D03*
X144018000Y-119126000D03*
X146558000Y-119126000D03*
X149098000Y-119126000D03*
%TD*%
%TO.C,P3*%
X154178000Y-119126000D03*
X156718000Y-119126000D03*
X159258000Y-119126000D03*
X161798000Y-119126000D03*
X164338000Y-119126000D03*
X166878000Y-119126000D03*
X169418000Y-119126000D03*
X171958000Y-119126000D03*
%TD*%
%TO.C,P4*%
X177038000Y-119126000D03*
X179578000Y-119126000D03*
X182118000Y-119126000D03*
X184658000Y-119126000D03*
X187198000Y-119126000D03*
X189738000Y-119126000D03*
X192278000Y-119126000D03*
X194818000Y-119126000D03*
%TD*%
%TO.C,P5*%
X122174000Y-70866000D03*
X124714000Y-70866000D03*
X127254000Y-70866000D03*
X129794000Y-70866000D03*
X132334000Y-70866000D03*
X134874000Y-70866000D03*
X137414000Y-70866000D03*
X139954000Y-70866000D03*
X142494000Y-70866000D03*
X145034000Y-70866000D03*
%TD*%
%TO.C,P6*%
X149098000Y-70866000D03*
X151638000Y-70866000D03*
X154178000Y-70866000D03*
X156718000Y-70866000D03*
X159258000Y-70866000D03*
X161798000Y-70866000D03*
X164338000Y-70866000D03*
X166878000Y-70866000D03*
%TD*%
%TO.C,P7*%
X171958000Y-70866000D03*
X174498000Y-70866000D03*
X177038000Y-70866000D03*
X179578000Y-70866000D03*
X182118000Y-70866000D03*
X184658000Y-70866000D03*
X187198000Y-70866000D03*
X189738000Y-70866000D03*
%TD*%
M02*
